<svg id="Layer_1" data-name="Layer 1" xmlns="http://www.w3.org/2000/svg" viewBox="0 0 94.25 94.25"><defs><style>.cls-1{fill:#83bbe6;}.cls-2{fill:#74ac42;}</style></defs><title>Earth</title><circle class="cls-1" cx="47.13" cy="47.13" r="47.13"/><polygon class="cls-2" points="50.13 18.5 47.13 28 54.13 37 58.38 46.75 66.13 50.5 67.63 46.75 67.63 41.5 74.38 39.75 73.38 34.5 78.88 34.5 81.13 34.5 78.38 24.75 68.38 20 50.13 18.5"/><polygon class="cls-2" points="53.13 63 64.75 66.75 75.25 63 79 72 66.06 80.75 51 79.5 45 60.25 53.13 63"/><path class="cls-2" d="M691.1,427l12.25,0.63H714.1l2,11.38-5.5,5.75L709.85,452l-12.25,6.25-23.18-10.76s1.44-16.7,8.69-24.73,10-10.29,10-10.29l2.13,7.53Z" transform="translate(-674.35 -402.96)"/></svg>